<mxfile host="app.diagrams.net" modified="2023-05-27T09:49:26.717Z" agent="Mozilla/5.0 (Macintosh; Intel Mac OS X 10_15_7) AppleWebKit/537.36 (KHTML, like Gecko) Chrome/113.0.0.0 Safari/537.36" version="21.3.4" etag="gPEbh-2U5NLIeXcCRUbc" type="github">
  <diagram name="Page-1" id="uUKGiLqM34rFBLXXrU4s">
    <mxGraphModel>
      <root>
        <mxCell id="0" />
        <mxCell id="1" parent="0" />
      </root>
    </mxGraphModel>
  </diagram>
</mxfile>
